<svg width="64" height="64" viewBox="0 0 64 64" fill="none" xmlns="http://www.w3.org/2000/svg">
<path d="M48.1599 61.3333H52.5865C54.8265 61.3333 56.6665 59.6 56.9332 57.4133L61.3332 13.4666H47.9999V2.66663H42.7465V13.4666H29.4932L30.2932 19.7066C34.8532 20.96 39.1199 23.2266 41.6799 25.7333C45.5199 29.52 48.1599 33.44 48.1599 39.84V61.3333ZM2.6665 58.6667V56H42.7465V58.6667C42.7465 60.1067 41.5465 61.3333 39.9999 61.3333H5.33317C3.8665 61.3333 2.6665 60.1067 2.6665 58.6667ZM42.7465 40C42.7465 18.6666 2.6665 18.6666 2.6665 40H42.7465ZM2.6665 45.3333H42.6665V50.6667H2.6665V45.3333Z" fill="#FFD233"/>
</svg>
