<svg width="55" height="54" viewBox="0 0 55 54" fill="none" xmlns="http://www.w3.org/2000/svg">
<circle cx="27.5" cy="27" r="26.5" stroke="#FCC81A"/>
<path d="M21.2 12H33.8C38.6 12 42.5 15.9 42.5 20.7V33.3C42.5 35.6074 41.5834 37.8203 39.9518 39.4518C38.3203 41.0834 36.1074 42 33.8 42H21.2C16.4 42 12.5 38.1 12.5 33.3V20.7C12.5 18.3926 13.4166 16.1797 15.0482 14.5482C16.6797 12.9166 18.8926 12 21.2 12ZM20.9 15C19.4678 15 18.0943 15.5689 17.0816 16.5816C16.0689 17.5943 15.5 18.9678 15.5 20.4V33.6C15.5 36.585 17.915 39 20.9 39H34.1C35.5322 39 36.9057 38.4311 37.9184 37.4184C38.9311 36.4057 39.5 35.0322 39.5 33.6V20.4C39.5 17.415 37.085 15 34.1 15H20.9ZM35.375 17.25C35.8723 17.25 36.3492 17.4475 36.7008 17.7992C37.0525 18.1508 37.25 18.6277 37.25 19.125C37.25 19.6223 37.0525 20.0992 36.7008 20.4508C36.3492 20.8025 35.8723 21 35.375 21C34.8777 21 34.4008 20.8025 34.0492 20.4508C33.6975 20.0992 33.5 19.6223 33.5 19.125C33.5 18.6277 33.6975 18.1508 34.0492 17.7992C34.4008 17.4475 34.8777 17.25 35.375 17.25ZM27.5 19.5C29.4891 19.5 31.3968 20.2902 32.8033 21.6967C34.2098 23.1032 35 25.0109 35 27C35 28.9891 34.2098 30.8968 32.8033 32.3033C31.3968 33.7098 29.4891 34.5 27.5 34.5C25.5109 34.5 23.6032 33.7098 22.1967 32.3033C20.7902 30.8968 20 28.9891 20 27C20 25.0109 20.7902 23.1032 22.1967 21.6967C23.6032 20.2902 25.5109 19.5 27.5 19.5ZM27.5 22.5C26.3065 22.5 25.1619 22.9741 24.318 23.818C23.4741 24.6619 23 25.8065 23 27C23 28.1935 23.4741 29.3381 24.318 30.182C25.1619 31.0259 26.3065 31.5 27.5 31.5C28.6935 31.5 29.8381 31.0259 30.682 30.182C31.5259 29.3381 32 28.1935 32 27C32 25.8065 31.5259 24.6619 30.682 23.818C29.8381 22.9741 28.6935 22.5 27.5 22.5Z" fill="#FFD233"/>
</svg>
