<svg width="64" height="64" viewBox="0 0 64 64" fill="none" xmlns="http://www.w3.org/2000/svg">
<path opacity="0.2" d="M46.0321 36.925C45.758 37.1658 45.5542 37.4763 45.4424 37.8236C45.3306 38.1709 45.315 38.542 45.3971 38.8975L48.7771 53.5325C48.8665 53.9148 48.8413 54.3148 48.7049 54.6829C48.5684 55.051 48.3267 55.3707 48.0097 55.6023C47.6928 55.834 47.3148 55.9672 46.9226 55.9855C46.5305 56.0037 46.1417 55.9062 45.8046 55.705L33.0296 47.955C32.7192 47.7663 32.3629 47.6665 31.9996 47.6665C31.6363 47.6665 31.28 47.7663 30.9696 47.955L18.1946 55.705C17.8576 55.9062 17.4687 56.0037 17.0766 55.9855C16.6845 55.9672 16.3064 55.834 15.9895 55.6023C15.6726 55.3707 15.4309 55.051 15.2944 54.6829C15.1579 54.3148 15.1328 53.9148 15.2221 53.5325L18.6021 38.8975C18.6843 38.542 18.6686 38.1709 18.5568 37.8236C18.445 37.4763 18.2412 37.1658 17.9671 36.925L6.68963 27.0875C6.38813 26.8313 6.16941 26.4913 6.06116 26.1108C5.95291 25.7302 5.95999 25.326 6.0815 24.9494C6.20301 24.5729 6.43349 24.2408 6.74377 23.9953C7.05406 23.7497 7.43021 23.6017 7.82463 23.57L22.6896 22.285C23.0523 22.2527 23.3993 22.122 23.6931 21.907C23.987 21.692 24.2166 21.4009 24.3571 21.065L30.1646 7.22504C30.3197 6.86722 30.5761 6.56255 30.9021 6.34854C31.2282 6.13453 31.6096 6.02051 31.9996 6.02051C32.3896 6.02051 32.7711 6.13453 33.0971 6.34854C33.4232 6.56255 33.6795 6.86722 33.8346 7.22504L39.6421 21.065C39.7827 21.4009 40.0123 21.692 40.3061 21.907C40.6 22.122 40.947 22.2527 41.3096 22.285L56.1746 23.57C56.5691 23.6017 56.9452 23.7497 57.2555 23.9953C57.5658 24.2408 57.7963 24.5729 57.9178 24.9494C58.0393 25.326 58.0464 25.7302 57.9381 26.1108C57.8299 26.4913 57.6111 26.8313 57.3096 27.0875L46.0321 36.925Z" fill="#FFD233"/>
<path d="M59.7998 24.3225C59.5576 23.5759 59.1011 22.9172 58.4872 22.4282C57.8733 21.9392 57.1291 21.6416 56.3473 21.5725L41.4998 20.2925L35.6799 6.45249C35.3768 5.72628 34.8657 5.10596 34.2109 4.66963C33.556 4.23331 32.7867 4.00049 31.9999 4.00049C31.213 4.00049 30.4437 4.23331 29.7888 4.66963C29.134 5.10596 28.6229 5.72628 28.3199 6.45249L22.5174 20.2925L7.65236 21.58C6.86745 21.6459 6.11948 21.9422 5.50226 22.4315C4.88503 22.9209 4.42602 23.5816 4.18279 24.3308C3.93956 25.0799 3.92293 25.8843 4.135 26.6429C4.34707 27.4014 4.77838 28.0805 5.37486 28.595L16.6524 38.45L13.2724 53.085C13.0936 53.8508 13.1446 54.6524 13.419 55.3894C13.6933 56.1264 14.1788 56.7663 14.8148 57.2289C15.4508 57.6914 16.2091 57.9563 16.9948 57.9903C17.7805 58.0243 18.5588 57.8259 19.2324 57.42L31.9824 49.67L44.7598 57.42C45.4334 57.8259 46.2117 58.0243 46.9974 57.9903C47.7831 57.9563 48.5414 57.6914 49.1774 57.2289C49.8134 56.7663 50.2989 56.1264 50.5732 55.3894C50.8476 54.6524 50.8986 53.8508 50.7198 53.085L47.3423 38.435L58.6173 28.595C59.2137 28.0788 59.6442 27.3977 59.8546 26.6375C60.065 25.8773 60.046 25.0719 59.7998 24.3225ZM55.9948 25.5725L44.7198 35.4125C44.1711 35.8898 43.7629 36.5077 43.5391 37.1998C43.3153 37.8918 43.2845 38.6317 43.4498 39.34L46.8373 54L34.0699 46.25C33.4469 45.8706 32.7317 45.67 32.0024 45.67C31.273 45.67 30.5578 45.8706 29.9349 46.25L17.1849 54L20.5499 39.35C20.7152 38.6417 20.6844 37.9018 20.4606 37.2098C20.2368 36.5177 19.8286 35.8998 19.2799 35.4225L7.99986 25.5875C7.99894 25.58 7.99894 25.5725 7.99986 25.565L22.8599 24.28C23.5854 24.216 24.2796 23.9552 24.8678 23.5257C25.456 23.0961 25.9157 22.5141 26.1974 21.8425L31.9999 8.01999L37.7998 21.8425C38.0815 22.5141 38.5413 23.0961 39.1294 23.5257C39.7176 23.9552 40.4118 24.216 41.1373 24.28L55.9998 25.565V25.5825L55.9948 25.5725Z" fill="#FFD233"/>
</svg>
