<svg width="55" height="54" viewBox="0 0 55 54" fill="none" xmlns="http://www.w3.org/2000/svg">
<circle cx="27.5" cy="27" r="26.5" stroke="#FCC81A"/>
<g clip-path="url(#clip0_4_2540)">
<path d="M27.509 15.4424C23.504 15.4424 19.502 16.6184 16.0415 18.9719H9.5L12.4445 22.1744C11.1029 23.3967 10.1624 24.9962 9.7466 26.7629C9.33078 28.5295 9.45906 30.3806 10.1146 32.073C10.7701 33.7654 11.9223 35.2199 13.4196 36.2455C14.917 37.2711 16.6896 37.8197 18.5045 37.8194C20.7722 37.8214 22.9564 36.9638 24.617 35.4194L27.5 38.5574L30.383 35.4224C32.0426 36.9651 34.2251 37.8216 36.491 37.8194C38.8774 37.8194 41.1662 36.8716 42.8539 35.1844C44.5416 33.4972 45.4902 31.2088 45.491 28.8224C45.4924 27.5708 45.2319 26.3328 44.7264 25.1879C44.2208 24.043 43.4814 23.0165 42.5555 22.1744L45.5 18.9719H38.975C35.5942 16.6705 31.5987 15.4406 27.509 15.4424ZM27.5 18.3824C29.7965 18.3824 32.0945 18.8369 34.256 19.7369C30.4145 21.2069 27.5 24.6449 27.5 28.6499C27.5 24.6434 24.587 21.2069 20.744 19.7369C22.8847 18.8447 25.1808 18.3833 27.5 18.3824ZM18.503 22.7354C19.3026 22.7354 20.0943 22.8929 20.833 23.1988C21.5717 23.5048 22.2429 23.9533 22.8082 24.5187C23.3736 25.084 23.8221 25.7552 24.128 26.4939C24.434 27.2326 24.5915 28.0243 24.5915 28.8239C24.5915 29.6234 24.434 30.4152 24.128 31.1539C23.8221 31.8925 23.3736 32.5637 22.8082 33.1291C22.2429 33.6945 21.5717 34.1429 20.833 34.4489C20.0943 34.7549 19.3026 34.9124 18.503 34.9124C16.8882 34.9124 15.3396 34.2709 14.1978 33.1291C13.056 31.9873 12.4145 30.4387 12.4145 28.8239C12.4145 27.2091 13.056 25.6605 14.1978 24.5187C15.3396 23.3769 16.8882 22.7354 18.503 22.7354ZM36.491 22.7384C37.2903 22.7381 38.0817 22.8952 38.8203 23.2008C39.5588 23.5064 40.2299 23.9545 40.7953 24.5194C41.3607 25.0844 41.8092 25.7551 42.1153 26.4934C42.4215 27.2318 42.5792 28.0231 42.5795 28.8224C42.5798 29.6216 42.4227 30.4131 42.1171 31.1517C41.8115 31.8902 41.3634 32.5613 40.7985 33.1267C40.2335 33.692 39.5627 34.1406 38.8244 34.4467C38.0861 34.7529 37.2948 34.9106 36.4955 34.9109C34.8813 34.9115 33.333 34.2708 32.1912 33.1299C31.0494 31.9889 30.4076 30.4411 30.407 28.8269C30.4064 27.2127 31.0471 25.6644 32.188 24.5226C33.329 23.3808 34.8768 22.739 36.491 22.7384ZM18.503 25.6334C17.6564 25.6334 16.8445 25.9697 16.2459 26.5683C15.6473 27.1669 15.311 27.9788 15.311 28.8254C15.311 29.672 15.6473 30.4839 16.2459 31.0825C16.8445 31.6811 17.6564 32.0174 18.503 32.0174C19.3496 32.0174 20.1615 31.6811 20.7601 31.0825C21.3587 30.4839 21.695 29.672 21.695 28.8254C21.695 27.9788 21.3587 27.1669 20.7601 26.5683C20.1615 25.9697 19.3496 25.6334 18.503 25.6334ZM36.491 25.6334C35.6444 25.6334 34.8325 25.9697 34.2339 26.5683C33.6353 27.1669 33.299 27.9788 33.299 28.8254C33.299 29.672 33.6353 30.4839 34.2339 31.0825C34.8325 31.6811 35.6444 32.0174 36.491 32.0174C37.3376 32.0174 38.1495 31.6811 38.7481 31.0825C39.3467 30.4839 39.683 29.672 39.683 28.8254C39.683 27.9788 39.3467 27.1669 38.7481 26.5683C38.1495 25.9697 37.3376 25.6334 36.491 25.6334Z" fill="#FFD233"/>
</g>
<defs>
<clipPath id="clip0_4_2540">
<rect width="36" height="36" fill="white" transform="translate(9.5 9)"/>
</clipPath>
</defs>
</svg>
