<svg width="64" height="64" viewBox="0 0 64 64" fill="none" xmlns="http://www.w3.org/2000/svg">
<g clip-path="url(#clip0_3_2106)">
<path d="M53.3335 21.3333H46.2224V12.4444C46.2224 11.9729 46.035 11.5207 45.7017 11.1873C45.3683 10.8539 44.9161 10.6666 44.4446 10.6666H5.33344C4.86195 10.6666 4.40976 10.8539 4.07636 11.1873C3.74297 11.5207 3.55566 11.9729 3.55566 12.4444V44.4444C3.55566 44.9159 3.74297 45.3681 4.07636 45.7015C4.40976 46.0349 4.86195 46.2222 5.33344 46.2222H7.11122V14.2222H42.6668V35.0222C43.5733 34.791 44.5046 34.6716 45.4401 34.6666H46.2224V24.8888H53.3335C54.2765 24.8888 55.1808 25.2634 55.8476 25.9302C56.5144 26.597 56.889 27.5014 56.889 28.4444V30.2222H49.7779V33.7777H56.889V42.6666H52.6224C51.9987 41.2178 50.9641 39.9836 49.6466 39.1164C48.3291 38.2491 46.7863 37.787 45.209 37.787C43.6317 37.787 42.0889 38.2491 40.7714 39.1164C39.4539 39.9836 38.4194 41.2178 37.7957 42.6666H25.6535C25.0416 41.2073 24.0107 39.9621 22.6911 39.0887C21.3715 38.2153 19.8225 37.7529 18.2401 37.76C16.7366 37.7931 15.2749 38.261 14.0315 39.107C12.7882 39.953 11.8164 41.1409 11.2336 42.5273C10.6508 43.9137 10.482 45.4391 10.7475 46.9194C11.013 48.3996 11.7015 49.7713 12.7297 50.8688C13.758 51.9662 15.082 52.7424 16.5419 53.1035C18.0017 53.4647 19.535 53.3954 20.9563 52.9039C22.3776 52.4125 23.6262 51.52 24.5513 50.3343C25.4763 49.1486 26.0382 47.7203 26.169 46.2222H37.3335C37.5594 48.1666 38.4919 49.9602 39.9537 51.2621C41.4156 52.5639 43.3048 53.2832 45.2623 53.2832C47.2199 53.2832 49.1091 52.5639 50.571 51.2621C52.0328 49.9602 52.9653 48.1666 53.1912 46.2222H58.6668C59.1383 46.2222 59.5905 46.0349 59.9239 45.7015C60.2573 45.3681 60.4446 44.9159 60.4446 44.4444V28.4444C60.4446 26.5584 59.6954 24.7497 58.3618 23.4161C57.0282 22.0825 55.2195 21.3333 53.3335 21.3333ZM18.2401 49.7777C17.6626 49.8152 17.0835 49.7338 16.5387 49.5386C15.9939 49.3434 15.495 49.0385 15.0727 48.6427C14.6504 48.247 14.3138 47.7688 14.0837 47.2378C13.8536 46.7068 13.7349 46.1342 13.7349 45.5555C13.7349 44.9768 13.8536 44.4042 14.0837 43.8732C14.3138 43.3422 14.6504 42.864 15.0727 42.4683C15.495 42.0725 15.9939 41.7676 16.5387 41.5724C17.0835 41.3772 17.6626 41.2958 18.2401 41.3333C18.8176 41.2958 19.3967 41.3772 19.9415 41.5724C20.4863 41.7676 20.9853 42.0725 21.4075 42.4683C21.8298 42.864 22.1664 43.3422 22.3965 43.8732C22.6266 44.4042 22.7453 44.9768 22.7453 45.5555C22.7453 46.1342 22.6266 46.7068 22.3965 47.2378C22.1664 47.7688 21.8298 48.247 21.4075 48.6427C20.9853 49.0385 20.4863 49.3434 19.9415 49.5386C19.3967 49.7338 18.8176 49.8152 18.2401 49.7777ZM45.209 49.7777C44.3818 49.736 43.585 49.4523 42.9175 48.962C42.25 48.4716 41.741 47.7961 41.4538 47.0192C41.1666 46.2424 41.1137 45.3983 41.3017 44.5916C41.4897 43.785 41.9103 43.0512 42.5114 42.4814C43.1125 41.9115 43.8677 41.5307 44.6832 41.386C45.4987 41.2413 46.3388 41.3391 47.0993 41.6674C47.8597 41.9956 48.5071 42.5399 48.9611 43.2326C49.4152 43.9254 49.6559 44.7361 49.6535 45.5644C49.6209 46.7118 49.1348 47.7996 48.3018 48.5893C47.4687 49.3791 46.3566 49.8064 45.209 49.7777Z" fill="#FFD233"/>
</g>
<defs>
<clipPath id="clip0_3_2106">
<rect width="64" height="64" fill="white"/>
</clipPath>
</defs>
</svg>
